<svg id="Capa_1" enable-background="new 0 0 512 512" height="512" viewBox="0 0 512 512" width="512" xmlns="http://www.w3.org/2000/svg" xmlns:xlink="http://www.w3.org/1999/xlink"><linearGradient id="SVGID_1_" gradientUnits="userSpaceOnUse" x1="256" x2="256" y1="512" y2="0"><stop offset="0" stop-color="black"/><stop offset="1" stop-color="rgba(0, 0, 0, 0.2)"/></linearGradient><g><g><path d="m166 271c8.284 0 15-6.716 15-15s-6.716-15-15-15-15 6.716-15 15 6.716 15 15 15zm300-60h-75v-15c0-5.532-3.045-10.615-7.922-13.225-4.878-2.61-10.796-2.324-15.398.744l-6.68 4.453v-112.972c0-8.284-6.716-15-15-15h-105v-45c0-4.822-2.318-9.35-6.229-12.168-3.911-2.82-8.939-3.587-13.514-2.062l-180 60c-6.126 2.042-10.257 7.774-10.257 14.23v362c0 6.457 4.131 12.188 10.257 14.23l180 60c4.531 1.511 9.568.784 13.514-2.062 3.911-2.818 6.229-7.346 6.229-12.168v-45h105c8.284 0 15-6.716 15-15v-112.972l6.68 4.453c4.609 3.073 10.529 3.351 15.398.744 4.877-2.61 7.922-7.693 7.922-13.225v-15h75c8.284 0 15-6.716 15-15v-60c0-8.284-6.716-15-15-15zm-255 265.189-150-50v-340.377l150-50zm120-54.189h-90v-332h90v117.972l-53.32 35.547c-4.173 2.782-6.68 7.466-6.68 12.481s2.506 9.699 6.68 12.481l53.32 35.547zm120-151h-75c-8.284 0-15 6.716-15 15v1.972l-47.958-31.972 47.958-31.972v1.972c0 8.284 6.716 15 15 15h75z" fill="url(#SVGID_1_)"/></g></g></svg>