<svg id="Capa_1" enable-background="new 0 0 512 512" height="512" viewBox="0 0 512 512" width="512" xmlns="http://www.w3.org/2000/svg"><g id="Flat_1_"><g><g fill="#fbc137"><circle cx="336" cy="232" r="56"/><circle cx="176" cy="232" r="56"/></g><g fill="#fde4cc"><circle cx="344" cy="168" r="32"/><circle cx="168" cy="168" r="32"/><path d="m400.704 317.838-88.704-27.719v-50.119c0-4.418-3.582-8-8-8h-96c-4.418 0-8 3.582-8 8v50.119l-88.704 27.72c-23.504 7.345-39.296 28.825-39.296 53.45v132.711c0 4.418 3.582 8 8 8h352c4.418 0 8-3.582 8-8v-132.711c0-24.625-15.792-46.105-39.296-53.451z"/><path d="m336 104h-160c-4.418 0-8 3.582-8 8v80c0 48.523 39.477 88 88 88s88-39.477 88-88v-80c0-4.418-3.582-8-8-8z"/></g><path d="m280 272c-48.523 0-88-39.477-88-88v-80h-16c-4.418 0-8 3.582-8 8v80c0 48.523 39.477 88 88 88 14.182 0 27.589-3.377 39.466-9.362-5.023.894-10.191 1.362-15.466 1.362z" fill="#fcd6b3"/><path d="m144 80v72c0 16 32 40 32 40s15.714-76.22 32-88c14.94-10.807 48 0 48 0s33.06-10.807 48 0c16.286 11.78 32 96 32 96s32-32 32-48c0-24 0-72 0-72z" fill="#fcd069"/><path d="m144 80v72c0 16 32 40 32 40s15.714-76.22 32-88c14.94-10.807 48 0 48 0s.909-.296 2.472-.737l-1.121-23.263z" fill="#fbc137"/><g><path d="m296 184c-4.418 0-8-3.582-8-8v-8c0-4.418 3.582-8 8-8s8 3.582 8 8v8c0 4.418-3.582 8-8 8z" fill="#f79235"/><path d="m216 184c-4.418 0-8-3.582-8-8v-8c0-4.418 3.582-8 8-8s8 3.582 8 8v8c0 4.418-3.582 8-8 8z" fill="#f79235"/><path d="m230.301 216c-3.067 0-5.011 3.313-3.483 5.972 4.084 7.108 12.993 18.028 29.182 18.028s25.098-10.92 29.182-18.028c1.528-2.659-.416-5.972-3.483-5.972z" fill="#fff"/></g></g><g><g><path d="m208.445 310.48-33.778-12.445-39.603 12.376 29.162 13.887z" fill="#dbd4dd"/><path d="m256 368 133.869-53.547 10.835 3.385-63.371-19.803-81.333 29.965-47.555-17.52-44.219 13.818z" fill="#edeaee"/><path d="m135.064 310.411-23.768 7.427z" fill="#02b27d"/><path d="m159.296 325.838 4.929-1.54-29.162-13.887-23.767 7.427c-23.504 7.346-39.296 28.826-39.296 53.451v132.711c0 4.418 3.582 8 8 8h40v-132.711c0-24.625 15.792-46.105 39.296-53.451z" fill="#5c2bbf"/><path d="m440 504v-132.711c0-24.625-15.792-46.105-39.296-53.451l-10.835-3.386-133.869 53.548-91.774-43.702-4.929 1.54c-23.505 7.346-39.297 28.826-39.297 53.451v132.711h312c4.418 0 8-3.582 8-8z" fill="#7d55cc"/></g><g><g><path d="m136 340.034v-29.177l-.936-.446-23.767 7.427c-23.505 7.346-39.297 28.826-39.297 53.451v132.711c0 4.418 3.582 8 8 8h40v-132.711c0-15.121 5.962-29.05 16-39.255z" fill="#5c2bbf"/><path d="m136 504v-163.966c-10.038 10.205-16 24.133-16 39.255v132.711h24c-4.418 0-8-3.582-8-8z" fill="#7d55cc"/><path d="m400.704 317.838-10.835-3.386-133.869 53.548-56-26.667v162.667c0 4.418-3.582 8-8 8h240c4.418 0 8-3.582 8-8v-132.711c0-24.625-15.792-46.105-39.296-53.451z" fill="#7d55cc"/><path d="m159.296 325.838 4.929-1.54-28.225-13.441v29.177c6.309-6.414 14.225-11.361 23.296-14.196z" fill="#9792ff"/><g fill="#bab7ff"><path d="m200 512v-170.667l-35.774-17.035-4.929 1.54c-9.072 2.835-16.987 7.782-23.296 14.196v171.966z"/><path d="m376 512v-192l-64 25.6v166.4z"/></g></g></g><g fill="#45208f"><path d="m305.213 392.021c-7.761-17.358-41.415-22.989-48.082-23.941-.734-.105-1.529-.106-2.263 0-6.667.952-40.321 6.583-48.082 23.941-2.024 4.527-3.224 11.745 2.557 20.416 5.127 7.692 11.101 9.543 15.663 9.543.543 0 1.068-.026 1.567-.072 8.766-.805 17.463-8.408 26.587-23.245 1.006-1.636 1.952-3.259 2.839-4.836.888 1.577 1.833 3.2 2.839 4.836 9.124 14.837 17.821 22.44 26.587 23.245.5.046 1.023.072 1.567.072 4.562 0 10.535-1.852 15.663-9.543 5.782-8.67 4.582-15.888 2.558-20.416zm-80.102 13.955c-.283.027-1.246-.601-2.455-2.413-2.096-3.144-1.513-4.45-1.264-5.008 1.871-4.191 10.47-8.19 19.85-11.038-6.072 10.377-12.588 18.133-16.131 18.459zm64.233-2.413c-1.207 1.81-2.155 2.463-2.454 2.413-3.532-.322-10.048-8.085-16.128-18.472 9.371 2.842 17.964 6.841 19.845 11.048.249.558.833 1.865-1.263 5.011z"/><path d="m264 512v-80c0-4.418-3.582-8-8-8s-8 3.582-8 8v80z"/></g></g><g><path d="m360 32h-208c-4.418 0-8 3.582-8 8v80c0 4.418 3.582 8 8 8h208c4.418 0 8-3.582 8-8v-80c0-4.418-3.582-8-8-8z" fill="#5c2bbf"/><path d="m200 120v-80c0-4.418 3.582-8 8-8h-56c-4.418 0-8 3.582-8 8v80c0 4.418 3.582 8 8 8h56c-4.418 0-8-3.582-8-8z" fill="#45208f"/><path d="m417.569 32.155-160-32c-1.035-.207-2.103-.207-3.138 0l-160 32c-3.739.748-6.431 4.032-6.431 7.845s2.692 7.097 6.431 7.845l160 32c.518.103 1.044.155 1.569.155s1.051-.052 1.569-.155l160-32c3.739-.748 6.431-4.032 6.431-7.845s-2.692-7.097-6.431-7.845z" fill="#9d80d9"/><path d="m177.114 15.619-82.683 16.536c-3.739.748-6.431 4.032-6.431 7.845s2.692 7.097 6.431 7.845l160 32c.518.103 1.044.155 1.569.155s1.051-.052 1.569-.155l59.032-11.806c-38.537-5.357-76.37-15.489-112.601-32.039-10.851-4.718-19.252-12.107-26.886-20.381z" fill="#7d55cc"/><g><path d="m96 120c-4.418 0-8-3.582-8-8v-72c0-4.418 3.582-8 8-8h160c4.418 0 8 3.582 8 8s-3.582 8-8 8h-152v64c0 4.418-3.582 8-8 8z" fill="#45208f"/><path d="m80.562 163.504 7.438-59.504h16l7.438 59.504c.298 2.387-1.563 4.496-3.969 4.496h-22.938c-2.406 0-4.267-2.109-3.969-4.496z" fill="#45208f"/><circle cx="96" cy="112" fill="#5c2bbf" r="16"/></g></g></g></svg>